<svg width="168" height="53" viewBox="0 0 168 53" fill="none" xmlns="http://www.w3.org/2000/svg">
<path d="M12.24 42.48C14.112 42.48 15.504 42.144 16.464 41.808V36.432C15.648 36.768 14.88 36.912 13.824 36.912C12.048 36.912 11.04 35.952 11.04 33.936V21.84H16.32V16.896H11.04V11.472H4.128V16.896H0.912V21.84H4.128V34.56C4.128 39.792 6.96 42.48 12.24 42.48ZM29.5178 42.528C33.6458 42.528 36.1898 40.608 37.4858 38.064V42H44.3978V16.896H37.4858V31.632C37.4858 35.328 35.1818 37.152 32.2538 37.152C29.2778 37.152 27.8858 35.52 27.8858 32.112V16.896H20.9738V33.072C20.9738 39.648 24.6218 42.528 29.5178 42.528ZM50.5564 42H57.5164V27.504C57.5164 23.808 59.7724 21.984 62.7484 21.984C65.8204 21.984 67.1644 23.616 67.1644 27.024V42H74.1244V26.016C74.1244 19.296 70.6204 16.32 65.6764 16.32C61.5004 16.32 58.7644 18.384 57.5164 20.88V16.896H50.5564V42Z" fill="black"/>
<path d="M111.224 42H118.136V21.84H123.608V16.896H118.136V13.824C118.136 11.904 119.048 10.512 121.256 10.512C122.264 10.512 123.128 10.704 123.8 10.944V5.712C122.696 5.376 121.688 5.232 120.2 5.232C114.632 5.232 111.224 8.16 111.224 14.016V16.896H107.912V21.84H111.224V42ZM136.237 42.528C140.365 42.528 142.909 40.608 144.205 38.064V42H151.117V16.896H144.205V31.632C144.205 35.328 141.901 37.152 138.973 37.152C135.997 37.152 134.605 35.52 134.605 32.112V16.896H127.693V33.072C127.693 39.648 131.341 42.528 136.237 42.528ZM157.467 42H164.379V5.52H157.467V42Z" fill="black"/>
<line x1="81" y1="18.5" x2="104" y2="18.5" stroke="black" stroke-width="3"/>
<line x1="81" y1="40.5" x2="104" y2="40.5" stroke="black" stroke-width="3"/>
<line x1="81" y1="28.5" x2="104" y2="28.5" stroke="black" stroke-width="3"/>
</svg>
